<svg width="15" height="15" viewBox="0 0 15 15" fill="none" xmlns="http://www.w3.org/2000/svg">
<path d="M6.09375 0C5.72079 0 5.3631 0.182348 5.09938 0.506931C4.83566 0.831513 4.6875 1.27174 4.6875 1.73077V2.30769H1.40625C1.03329 2.30769 0.675604 2.49004 0.411881 2.81462C0.148158 3.13921 0 3.57943 0 4.03846L0 5.63538L7.13812 7.97769C7.37524 8.05541 7.62476 8.05541 7.86187 7.97769L15 5.63538V4.03846C15 3.57943 14.8518 3.13921 14.5881 2.81462C14.3244 2.49004 13.9667 2.30769 13.5938 2.30769H10.3125V1.73077C10.3125 1.27174 10.1643 0.831513 9.90062 0.506931C9.6369 0.182348 9.27921 0 8.90625 0H6.09375ZM6.09375 1.15385H8.90625C9.03057 1.15385 9.1498 1.21463 9.23771 1.32282C9.32561 1.43102 9.375 1.57776 9.375 1.73077V2.30769H5.625V1.73077C5.625 1.57776 5.67439 1.43102 5.76229 1.32282C5.8502 1.21463 5.96943 1.15385 6.09375 1.15385V1.15385Z" fill="white"/>
<path d="M0 13.2692C0 13.7283 0.148158 14.1685 0.411881 14.4931C0.675604 14.8177 1.03329 15 1.40625 15H13.5938C13.9667 15 14.3244 14.8177 14.5881 14.4931C14.8518 14.1685 15 13.7283 15 13.2692V6.75L7.62094 9.16961C7.5417 9.19566 7.4583 9.19566 7.37906 9.16961L0 6.75V13.2692Z" fill="white"/>
</svg>
