<svg width="45" height="45" viewBox="0 0 45 45" fill="none" xmlns="http://www.w3.org/2000/svg">
<path d="M24.2625 22.5L33.375 13.3875C33.5798 13.1483 33.6868 12.8407 33.6746 12.5261C33.6625 12.2115 33.532 11.9131 33.3094 11.6905C33.0868 11.4679 32.7884 11.3375 32.4738 11.3253C32.1592 11.3132 31.8516 11.4202 31.6125 11.625L22.5 20.7375L13.3875 11.6125C13.1483 11.4077 12.8407 11.3007 12.5262 11.3128C12.2116 11.325 11.9131 11.4554 11.6905 11.678C11.4679 11.9006 11.3375 12.199 11.3253 12.5136C11.3132 12.8282 11.4202 13.1358 11.625 13.375L20.7375 22.5L11.6125 31.6125C11.4816 31.7245 11.3753 31.8624 11.3003 32.0175C11.2253 32.1726 11.1831 32.3415 11.1765 32.5136C11.1698 32.6858 11.1988 32.8575 11.2617 33.0179C11.3245 33.1783 11.4198 33.324 11.5417 33.4458C11.6635 33.5676 11.8092 33.6629 11.9696 33.7258C12.13 33.7886 12.3016 33.8176 12.4738 33.811C12.6459 33.8043 12.8148 33.7621 12.9699 33.6871C13.125 33.6121 13.2629 33.5058 13.375 33.375L22.5 24.2625L31.6125 33.375C31.8516 33.5797 32.1592 33.6868 32.4738 33.6746C32.7884 33.6624 33.0868 33.532 33.3094 33.3094C33.532 33.0868 33.6625 32.7884 33.6746 32.4738C33.6868 32.1592 33.5798 31.8516 33.375 31.6125L24.2625 22.5Z" fill="#404042"/>
</svg>
