<svg width="15" height="16" viewBox="0 0 15 16" fill="none" xmlns="http://www.w3.org/2000/svg">
<path fill-rule="evenodd" clip-rule="evenodd" d="M1.06104 2.917H2.08304V4.132H1.06104V11.967H2.04904V13.084H1.06104V15.881H12.958V0H1.06104V2.917ZM4.44504 4.392C4.47504 4.368 4.71604 4.188 4.80204 4.123L4.79604 4.121L4.81304 4.114C4.81804 4.108 4.83404 4.097 4.83704 4.094L4.84104 4.099C4.98704 4.013 5.13804 3.953 5.31004 3.927C5.77204 3.859 6.10904 4.339 6.32804 4.614C6.54704 4.886 6.85104 5.32 6.81404 5.617C6.79204 5.796 6.58704 5.961 6.39304 6.123L6.38604 6.113C6.33304 6.17 6.09904 6.409 6.07904 6.441C5.97204 6.619 5.84904 7.022 6.02104 7.326C6.18404 7.621 6.50604 8.099 6.81104 8.498C7.13304 8.885 7.52804 9.308 7.77804 9.535C8.04004 9.772 8.47104 9.755 8.67304 9.697C8.71204 9.687 9.02704 9.5 9.06804 9.48C9.27704 9.336 9.48804 9.184 9.67504 9.207C9.97804 9.245 10.331 9.641 10.55 9.914C10.769 10.188 11.163 10.626 10.983 11.046C10.9139 11.1995 10.8142 11.3373 10.69 11.451L10.694 11.455L10.672 11.471L10.666 11.479L10.662 11.48L10.308 11.749C9.97203 11.966 9.24203 12.237 8.21603 11.634C7.45503 11.185 6.62004 10.423 5.82304 9.471L5.81904 9.474C5.78274 9.42748 5.74707 9.38048 5.71204 9.333C5.67504 9.287 5.63604 9.244 5.59804 9.196L5.60204 9.193C4.85404 8.206 4.30404 7.228 4.04604 6.397C3.69904 5.277 4.14804 4.656 4.44504 4.392V4.392Z" fill="#404042"/>
<path fill-rule="evenodd" clip-rule="evenodd" d="M0 3H0.979V3.992H0V3Z" fill="#404042"/>
<path fill-rule="evenodd" clip-rule="evenodd" d="M0 12H0.977V12.943H0V12Z" fill="#404042"/>
<path fill-rule="evenodd" clip-rule="evenodd" d="M14 2H14.916V4.875H14V2Z" fill="#404042"/>
<path fill-rule="evenodd" clip-rule="evenodd" d="M14 11H14.887V13.847H14V11Z" fill="#404042"/>
<path fill-rule="evenodd" clip-rule="evenodd" d="M14 6H14.901V9.895H14V6Z" fill="#404042"/>
</svg>
