<svg width="30" height="30" viewBox="0 0 30 30" fill="none" xmlns="http://www.w3.org/2000/svg">
<path d="M6.73594 20.2393C9.98839 20.4609 10.6835 20.3806 10.6835 21.0388C10.6835 22.3781 6.29397 22.3821 6.29397 21.1406C6.29464 20.7998 6.51429 20.5112 6.73594 20.2393V20.2393ZM8.60759 12.4286C6.44531 12.4286 6.34754 15.4065 8.55737 15.4065C10.7344 15.4065 10.6808 12.4286 8.60759 12.4286V12.4286ZM30 3.21429V26.7857C30 27.6382 29.6614 28.4558 29.0586 29.0586C28.4558 29.6614 27.6382 30 26.7857 30H3.21429C2.3618 30 1.54424 29.6614 0.941442 29.0586C0.338647 28.4558 0 27.6382 0 26.7857L0 3.21429C0 2.3618 0.338647 1.54424 0.941442 0.941443C1.54424 0.338647 2.3618 0 3.21429 0H26.7857C27.6382 0 28.4558 0.338647 29.0586 0.941443C29.6614 1.54424 30 2.3618 30 3.21429V3.21429ZM14.7991 7.85558C14.7991 8.82589 15.3603 9.38772 16.3299 9.38772C17.317 9.38772 17.8788 8.82589 17.8788 7.85558C17.8788 6.88527 17.3183 6.36161 16.3312 6.36161C15.3616 6.36161 14.7991 6.88661 14.7991 7.85558ZM13.3379 10.9152H10.0199C8.34576 10.4766 4.55826 10.5904 4.55826 14.0458C4.55826 15.3047 5.18772 16.1886 6.02143 16.5978C4.97076 17.56 4.47321 18.0134 4.47321 18.6562C4.47321 19.1163 4.66004 19.5415 5.22188 19.7786C4.62589 20.3411 4.28437 20.7482 4.28437 21.5143C4.28571 22.8583 5.4596 23.6384 8.53929 23.6384C11.5004 23.6384 13.2181 22.5328 13.2181 20.5761C13.2181 18.1205 11.3277 18.2109 6.87187 17.9391L7.43304 17.0397C8.57143 17.3571 12.4011 17.4569 12.4011 14.1984C12.4011 13.4156 12.0777 12.8712 11.7717 12.4795L13.3373 12.3603L13.3379 10.9152ZM18.9857 18.2705L18.1152 18.1513C17.8594 18.1172 17.8426 18.0844 17.8426 17.8105V10.7491H14.3203L14.1335 12.1266C15.1882 12.4982 15.2719 12.452 15.2719 12.8076V17.8125C15.2719 18.1888 15.2511 18.1192 14.1335 18.2725V19.6158H18.983L18.9857 18.2705ZM25.7143 18.9509L25.2542 17.4529C22.5134 18.4821 22.7196 16.6219 22.7196 16.3326V12.2665H25.2542V10.565H22.8556C22.6634 10.565 22.7217 10.7337 22.7217 7.97812H21.1025C20.9156 9.83304 20.3203 10.5817 18.8257 10.7518V12.2665C20.1964 12.2665 20.1529 12.2096 20.1529 12.4366V16.8944C20.1529 18.8176 20.9183 19.6339 22.9433 19.6339C23.9109 19.6339 24.9824 19.3105 25.7143 18.9509V18.9509Z" fill="white"/>
</svg>
