<svg width="30" height="30" viewBox="0 0 30 30" fill="none" xmlns="http://www.w3.org/2000/svg">
<path d="M3.4668 0H5.27013V1.33625H6.92013V0H8.72346V4.045H6.92013V2.69125H5.27013V4.045H3.46846V0H3.4668Z" fill="white"/>
<path d="M11.0935 1.34125H9.50684V0H14.4852V1.34125H12.8968V4.045H11.0935V1.34125Z" fill="white"/>
<path d="M15.2751 0H17.1551L18.3118 1.42125L19.4668 0H21.3468V4.045H19.5518V2.04L18.3118 3.47875H18.2801L17.0385 2.04125V4.045H15.2751V0V0Z" fill="white"/>
<path d="M22.2432 0H24.0482V2.70875H26.5815V4.04625H22.2432V0V0Z" fill="white"/>
<path fill-rule="evenodd" clip-rule="evenodd" d="M3.41 27.59L0 5.89624H30L26.5883 27.5875L14.9833 30L3.41 27.59ZM10.305 15.715L9.98167 12.99H23.5567L23.8733 10.33H6.10667L7.06333 18.3762H19.3583L18.9467 21.8262L14.99 22.6287H14.9867L11.0367 21.8287L10.7833 19.7075H7.22L7.71667 23.885L14.9833 25.3975L22.2617 23.885L23.1483 16.43L23.235 15.7162H10.305V15.715Z" fill="white"/>
</svg>
