<svg width="30" height="30" viewBox="0 0 30 30" fill="none" xmlns="http://www.w3.org/2000/svg">
<path fill-rule="evenodd" clip-rule="evenodd" d="M0 0H30V30H0V0ZM22.9338 25.15C21.5425 25.15 20.7562 24.425 20.1525 23.4375L17.8612 24.7688C18.6887 26.4038 20.38 27.6513 22.9988 27.6513C25.6763 27.6513 27.67 26.2613 27.67 23.7225C27.67 21.3688 26.3175 20.3225 23.9225 19.2938L23.2175 18.9925C22.0075 18.4675 21.4838 18.1263 21.4838 17.28C21.4838 16.5963 22.0088 16.0725 22.8338 16.0725C23.6425 16.0725 24.1638 16.4138 24.6475 17.28L26.8425 15.8712C25.9138 14.2375 24.6263 13.6137 22.8338 13.6137C20.3163 13.6137 18.705 15.2238 18.705 17.3388C18.705 19.6325 20.055 20.7187 22.09 21.585L22.795 21.8875C24.0813 22.45 24.8475 22.7925 24.8475 23.7587C24.8475 24.5662 24.1013 25.15 22.9338 25.15V25.15ZM12.0088 25.1312C11.04 25.1312 10.6362 24.4687 10.1937 23.6812L7.89875 25.0712C8.56375 26.4787 9.87125 27.6463 12.1275 27.6463C14.6262 27.6463 16.3375 26.3175 16.3375 23.3987V13.7738H13.5187V23.3612C13.5187 24.77 12.9337 25.1312 12.0075 25.1312H12.0088Z" fill="white"/>
</svg>
