<svg width="30" height="30" viewBox="0 0 30 30" fill="none" xmlns="http://www.w3.org/2000/svg">
<path d="M25.8251 17.2457L25.9489 17.2432C26.7312 17.2432 27.4712 17.4857 28.1277 17.9182L28.0987 17.9007C28.6827 18.2767 29.1815 18.8526 29.544 19.5695L29.5524 19.587C29.8679 20.204 30.024 20.9413 29.997 21.6871V21.6796C29.9837 22.0242 29.919 22.3618 29.8066 22.6726C29.6942 22.9834 29.5363 23.2612 29.3423 23.4897L29.3405 23.4922C29.1311 23.7662 28.88 23.9772 28.6042 24.111L28.5901 24.1172C28.4338 24.1589 28.3478 24.1276 28.3322 24.0235C28.3166 23.9193 28.3869 23.8047 28.5432 23.6797C28.9672 23.3372 29.2739 22.7846 29.3855 22.1334L29.3883 22.1171C29.4126 21.683 29.3477 21.2483 29.2007 20.8596L29.2054 20.8733C29.0086 20.3206 28.7041 19.8483 28.3238 19.5058L28.3144 19.4983C27.7266 18.9983 27.0557 18.6983 26.3607 18.6245L26.3457 18.6232C25.3503 18.4345 24.3352 18.5916 23.3987 19.0795L23.4381 19.0607C23.5741 19.4845 23.6595 19.9758 23.6717 20.4908V20.497C23.6648 20.9988 23.5628 21.4901 23.375 21.9251C23.1872 22.3601 22.9198 22.7246 22.5977 22.9847L22.5874 22.9922C22.2967 23.2672 21.9647 23.5084 21.6111 23.6959L21.5782 23.7109C21.3217 23.8756 21.038 23.9504 20.7538 23.9285H20.7585C20.1651 23.7626 20.0244 23.0751 20.3364 21.8659C20.4724 21.3396 20.6628 20.8833 20.9039 20.482L20.8982 20.4908C21.2068 19.9533 21.5454 19.482 21.9196 19.0645L21.9299 19.0532L21.838 18.8707C21.6559 18.4512 21.5033 18.0102 21.3822 17.5532L21.3691 17.4957C21.2753 17.079 21.1971 16.6835 21.1346 16.3094L21.0877 15.8718L20.6187 17.0581C20.2123 18.0582 19.8215 18.9328 19.4463 19.682L19.3056 19.9945C19.4632 20.5045 19.5795 21.0958 19.632 21.7134L19.6339 21.7446C19.6599 22.2266 19.5922 22.7094 19.4375 23.1465C19.2827 23.5835 19.0461 23.96 18.7504 24.2397L18.7438 24.246C18.4595 24.4773 18.1651 24.686 17.8622 24.871L17.8059 24.9022C17.4518 25.1041 17.0735 25.2205 16.6888 25.246H16.6804C16.419 25.2702 16.1572 25.2039 15.9207 25.0535L15.9301 25.0585C15.8372 24.9532 15.773 24.8099 15.7477 24.6509C15.7225 24.4919 15.7374 24.3262 15.7903 24.1797L15.7884 24.1847C16.1636 23.4834 16.5332 22.8734 16.9261 22.2909L16.9139 22.3096L17.9457 20.5608L17.759 19.9983C17.597 19.5969 17.4602 19.1784 17.3501 18.747L17.337 18.687C17.2432 18.2703 17.165 17.8748 17.1025 17.5007L17.0556 17.0631L16.5866 18.5632C16.2121 19.7291 15.8682 20.7287 15.5549 21.5621C15.0878 22.8122 14.697 23.7705 14.3825 24.4372L14.2887 24.6247C13.9142 25.4156 13.5546 25.811 13.2101 25.811C12.8656 25.811 12.632 25.5194 12.5095 24.936C12.414 24.4687 12.366 23.9865 12.3669 23.5022L12.3678 23.3672V23.3734L12.4616 22.4984V22.5609C12.2115 23.3518 11.9614 24.0805 11.7113 24.7472C11.559 25.1487 11.3824 25.5329 11.1833 25.896L11.1954 25.8723C11.0022 26.1423 10.7302 26.3098 10.4292 26.3098H10.4217C10.402 26.3123 10.3795 26.3123 10.3569 26.3123C10.1292 26.3126 9.90951 26.1999 9.74073 25.996L9.74167 25.9973C9.40891 25.5422 9.1693 24.981 9.04573 24.3672L9.04104 24.341C8.85676 23.6438 8.77616 22.9054 8.80375 22.1671V22.1796C8.87785 21.1846 9.02698 20.2733 9.24551 19.4045L9.22582 19.4933L7.5385 20.8058V20.8683C7.84625 21.7303 7.97546 22.6863 7.91273 23.6372L7.91366 23.6172C7.86824 24.8533 7.57231 26.05 7.05734 27.0798L7.06954 27.0548C6.55461 28.1528 5.79609 29.0099 4.89919 29.5075L4.86824 29.5225C4.32908 29.8397 3.7459 30.0024 3.15653 30C2.76448 30 2.38368 29.93 2.02352 29.7975L2.05354 29.8062C1.76251 29.6774 1.51544 29.4146 1.35666 29.0649L1.35385 29.0574C1.12662 28.6152 0.995781 28.0977 0.975866 27.5624V27.5549C0.916544 26.7962 1.0169 26.0305 1.26568 25.3435L1.25724 25.3685C1.78245 24.166 2.53037 23.1631 3.42947 22.4559L3.4576 22.4359C4.1285 21.8211 4.83297 21.2742 5.56511 20.7996L5.66453 20.7408L5.89901 20.5533C5.61763 20.2616 5.10178 19.7616 4.35144 19.0532C3.40518 18.2132 2.50443 17.2854 1.65586 16.2769L1.67931 16.3044C0.875137 15.3861 0.30459 14.1579 0.046387 12.7892L0.0388836 12.7417C-0.0690307 11.855 0.0491928 10.9457 0.374659 10.1591L0.367156 10.1803C0.869413 8.7247 1.60139 7.43062 2.51312 6.38642L2.52437 6.37391C3.50016 5.14635 4.59169 4.09329 5.77145 3.24127L5.85305 3.18752C6.9984 2.317 8.20038 1.58609 9.44435 1.00367L9.6038 0.938671C10.8966 0.321005 12.2597 0.00511244 13.6331 0.00487894H13.635C14.8336 -0.045522 16.0233 0.295208 17.1006 0.997423L17.0575 0.971172C17.9016 1.4837 18.5337 2.44874 18.787 3.62879L18.7926 3.65879C19.0126 4.84796 18.9348 6.10036 18.5713 7.2252L18.5816 7.18895C18.2002 8.43731 17.6259 9.56471 16.8961 10.4978L16.8933 10.5016C16.1646 11.4645 15.2975 12.2213 14.344 12.7267L14.2925 12.7504C13.2129 13.3578 12.0589 13.6964 10.8878 13.7492L10.87 13.7505C10.132 13.8563 9.38551 13.7671 8.67338 13.488L8.71371 13.5017C8.2802 13.3206 7.87968 13.0213 7.53756 12.6229L7.54131 12.6267C7.3096 12.376 7.11982 12.0635 6.98419 11.7092L6.97856 11.6929C6.88477 11.3596 6.87695 11.1616 6.95511 11.0991C7.03327 11.0366 7.08798 11.0262 7.11925 11.0679L7.35373 11.3804C7.61541 11.7042 7.92773 11.9592 8.27289 12.1217L8.29165 12.1292C8.76623 12.3492 9.31398 12.4767 9.8833 12.4767C10.0662 12.4767 10.2463 12.4642 10.4235 12.4379L10.402 12.4404C11.8545 12.2191 13.2476 11.5455 14.4688 10.4741L14.4341 10.5028C15.415 9.73061 16.232 8.63782 16.808 7.32771L16.8248 7.28521C17.1072 6.73268 17.276 6.05015 17.276 5.31512C17.276 4.86385 17.2122 4.43133 17.0959 4.03381L17.1025 4.05756C16.9286 3.68789 16.6978 3.37167 16.4254 3.12987C16.1529 2.88807 15.845 2.7262 15.5221 2.655L15.5089 2.6525C14.4782 2.32837 13.4075 2.29982 12.3678 2.56874L12.4147 2.55874C10.9166 2.90983 9.46664 3.5592 8.11344 4.48508L8.19879 4.43133C4.35457 7.01478 2.36962 9.66031 2.24393 12.3679V12.4292C2.24393 13.5205 2.56564 14.5118 3.08994 15.2443L3.089 15.2431C3.68015 16.1207 4.34406 16.9062 5.06801 17.5844L5.10459 17.6169C5.73609 18.2433 6.33118 18.9324 6.88477 19.6783L6.8857 19.6808L6.9795 19.8058L9.98084 17.6194C10.314 16.9729 10.7292 16.4086 11.2076 15.9518L11.2226 15.9381C11.5978 15.5181 12.0743 15.2443 12.5967 15.1893L12.6051 15.1881C12.6239 15.1856 12.6455 15.1856 12.668 15.1856C13.0178 15.1856 13.318 15.4668 13.4474 15.8693L13.4493 15.8768C13.5867 16.2929 13.6351 16.7515 13.589 17.2019L13.59 17.1894L13.499 17.8057L13.6397 17.6807C13.7229 17.5964 13.8215 17.5435 13.9253 17.5275C14.0291 17.5114 14.1342 17.5328 14.2296 17.5894L14.2259 17.5869C14.3307 17.6227 14.4208 17.7119 14.4768 17.8353C14.5328 17.9588 14.5501 18.1066 14.5251 18.2469L14.526 18.2432L14.3853 18.9307C14.1039 20.43 13.9167 21.5129 13.8235 22.1796C13.7632 22.4661 13.7398 22.764 13.7541 23.0609V23.0534C13.7697 23.3034 13.7932 23.4284 13.8244 23.4284C13.8557 23.4284 13.9179 23.3034 14.0111 23.0534L14.1518 22.6159C14.183 22.6159 14.183 22.6367 14.1518 22.6784L14.6676 21.2408C15.8869 17.659 16.5432 15.6589 16.6363 15.2406L16.9177 14.0543C16.949 13.9709 17.074 13.888 17.2929 13.8055C17.5547 13.7136 17.825 13.6715 18.0957 13.6805H18.0929C18.5306 13.6805 18.7495 13.8263 18.7495 14.118L18.7026 14.4305C18.5841 14.8747 18.4873 15.3286 18.4127 15.7893L18.4024 15.8681C18.3552 16.2914 18.3638 16.7225 18.4278 17.1419L18.4249 17.1181L18.4718 17.3669C18.5675 17.8882 18.7129 18.3457 18.9033 18.7632L18.8939 18.742C19.2684 17.9094 19.628 17.0556 19.9725 16.1806C20.2445 15.5768 20.4977 14.8768 20.7013 14.1443L20.7228 14.0568C20.7932 13.5855 20.8738 13.188 20.9723 12.8005L20.9573 12.8705C20.9886 12.7454 21.1221 12.6517 21.3578 12.5892C21.581 12.5292 21.8371 12.4954 22.0988 12.4954H22.1325H22.1307C22.5684 12.4954 22.8019 12.6413 22.8313 12.933L22.7375 13.1817C22.6259 13.6017 22.5283 14.1068 22.4627 14.6255L22.4571 14.6818C22.4277 15.1087 22.4447 15.539 22.5077 15.9593L22.504 15.9306V16.1794C22.6118 16.7244 22.7722 17.2031 22.9823 17.6369L22.9729 17.6169L23.1136 18.0544C23.9482 17.5158 24.864 17.2379 25.7914 17.2419H25.8279H25.8261L25.8251 17.2457ZM5.71705 26.3123C6.39425 25.3818 6.77246 24.136 6.77128 22.8397C6.77153 22.3322 6.71397 21.8277 6.60058 21.3433L6.60808 21.3783L5.85774 22.0034C5.0924 22.5846 4.43023 23.2334 3.8309 23.971L3.8384 23.9622C3.37778 24.5253 3.04638 25.2509 2.88266 26.0548L2.87703 26.086C2.73634 26.8569 2.80669 27.3569 3.08806 27.5861C3.2597 27.6911 3.46136 27.7524 3.67239 27.7524C3.90312 27.7524 4.12165 27.6799 4.31393 27.5499L4.30548 27.5549C4.84279 27.2977 5.32479 26.8694 5.70955 26.3073L5.71236 26.3036L5.71705 26.3123ZM11.9983 20.557C12.1546 20.0154 12.3266 19.3695 12.5142 18.6195C12.7643 17.6194 12.8503 17.0365 12.7721 16.8706C12.6939 16.7048 12.5454 16.684 12.3266 16.8081C12.0739 16.9698 11.8508 17.2032 11.6728 17.4919L11.67 17.4969C11.468 17.839 11.2855 18.2009 11.1242 18.5795L11.1073 18.622C10.9089 19.0584 10.7538 19.5274 10.6458 20.017L10.6374 20.0595C10.4189 20.8641 10.3235 21.7189 10.3569 22.5734V22.5584C10.3882 23.3909 10.4883 23.8389 10.6571 23.9022C10.8259 23.9655 11.0213 23.6634 11.2433 22.9959C11.4581 22.4796 11.6494 21.8796 11.792 21.2508L11.8051 21.1833C11.8983 20.8883 11.962 20.6796 11.9964 20.557H11.9983ZM17.2 23.8697C17.5232 23.6792 17.8022 23.3769 18.0082 22.9942C18.2142 22.6115 18.3396 22.1624 18.3715 21.6934L18.3724 21.6834V21.6208L17.8566 22.4959L16.9196 23.8709C16.9124 23.8783 16.9065 23.8878 16.9025 23.8986C16.8984 23.9094 16.8962 23.9213 16.8961 23.9335C16.8961 23.9585 16.9055 23.981 16.9186 23.996C16.9487 24.0368 17.0424 23.9951 17.2 23.8709V23.8697ZM21.2321 22.6821C21.5825 22.551 21.8911 22.271 22.1112 21.8847C22.3312 21.4985 22.4507 21.027 22.4514 20.542V20.4933V20.4958C22.4421 20.2458 22.4083 20.0108 22.3529 19.7883L22.3567 19.807C21.9919 20.2395 21.6927 20.7571 21.476 21.3408L21.4657 21.3696C21.1837 22.1188 21.1049 22.5555 21.2293 22.6796L21.2321 22.6821Z" fill="white"/>
</svg>
