<svg width="30" height="30" viewBox="0 0 30 30" fill="none" xmlns="http://www.w3.org/2000/svg">
<path fill-rule="evenodd" clip-rule="evenodd" d="M4.28571 1.5C3.71739 1.5 3.17235 1.65804 2.77049 1.93934C2.36862 2.22064 2.14286 2.60218 2.14286 3V24C2.14286 24.3978 2.36862 24.7794 2.77049 25.0607C3.17235 25.342 3.71739 25.5 4.28571 25.5H16.0714V27H4.28571C3.14907 27 2.05898 26.6839 1.25526 26.1213C0.451529 25.5587 0 24.7956 0 24V3C0 2.20435 0.451529 1.44129 1.25526 0.87868C2.05898 0.31607 3.14907 0 4.28571 0H25.7143C26.8509 0 27.941 0.31607 28.7447 0.87868C29.5485 1.44129 30 2.20435 30 3V24C30 24.7956 29.5485 25.5587 28.7447 26.1213C27.941 26.6839 26.8509 27 25.7143 27H22.5V25.5H25.7143C26.2826 25.5 26.8277 25.342 27.2295 25.0607C27.6314 24.7794 27.8571 24.3978 27.8571 24V3C27.8571 2.60218 27.6314 2.22064 27.2295 1.93934C26.8277 1.65804 26.2826 1.5 25.7143 1.5H4.28571Z" fill="#404042"/>
<path fill-rule="evenodd" clip-rule="evenodd" d="M8.57153 5.25C8.57153 5.05109 8.68441 4.86032 8.88535 4.71967C9.08628 4.57902 9.3588 4.5 9.64296 4.5H20.3572C20.6414 4.5 20.9139 4.57902 21.1149 4.71967C21.3158 4.86032 21.4287 5.05109 21.4287 5.25C21.4287 5.44891 21.3158 5.63968 21.1149 5.78033C20.9139 5.92098 20.6414 6 20.3572 6H9.64296C9.3588 6 9.08628 5.92098 8.88535 5.78033C8.68441 5.63968 8.57153 5.44891 8.57153 5.25Z" fill="#404042"/>
<path fill-rule="evenodd" clip-rule="evenodd" d="M4.28564 9.75C4.28564 9.55109 4.39853 9.36032 4.59946 9.21967C4.80039 9.07902 5.07291 9 5.35707 9H24.6428C24.9269 9 25.1995 9.07902 25.4004 9.21967C25.6013 9.36032 25.7142 9.55109 25.7142 9.75C25.7142 9.94891 25.6013 10.1397 25.4004 10.2803C25.1995 10.421 24.9269 10.5 24.6428 10.5H5.35707C5.07291 10.5 4.80039 10.421 4.59946 10.2803C4.39853 10.1397 4.28564 9.94891 4.28564 9.75Z" fill="#404042"/>
<path fill-rule="evenodd" clip-rule="evenodd" d="M4.28564 12.75C4.28564 12.5511 4.39853 12.3603 4.59946 12.2197C4.80039 12.079 5.07291 12 5.35707 12H24.6428C24.9269 12 25.1995 12.079 25.4004 12.2197C25.6013 12.3603 25.7142 12.5511 25.7142 12.75C25.7142 12.9489 25.6013 13.1397 25.4004 13.2803C25.1995 13.421 24.9269 13.5 24.6428 13.5H5.35707C5.07291 13.5 4.80039 13.421 4.59946 13.2803C4.39853 13.1397 4.28564 12.9489 4.28564 12.75Z" fill="#404042"/>
<path fill-rule="evenodd" clip-rule="evenodd" d="M4.28564 15.75C4.28564 15.5511 4.39853 15.3603 4.59946 15.2197C4.80039 15.079 5.07291 15 5.35707 15H24.6428C24.9269 15 25.1995 15.079 25.4004 15.2197C25.6013 15.3603 25.7142 15.5511 25.7142 15.75C25.7142 15.9489 25.6013 16.1397 25.4004 16.2803C25.1995 16.421 24.9269 16.5 24.6428 16.5H5.35707C5.07291 16.5 4.80039 16.421 4.59946 16.2803C4.39853 16.1397 4.28564 15.9489 4.28564 15.75Z" fill="#404042"/>
<path fill-rule="evenodd" clip-rule="evenodd" d="M19.2857 23.25C19.854 23.25 20.3991 23.092 20.8009 22.8107C21.2028 22.5294 21.4286 22.1478 21.4286 21.75C21.4286 21.3522 21.2028 20.9706 20.8009 20.6893C20.3991 20.408 19.854 20.25 19.2857 20.25C18.7174 20.25 18.1723 20.408 17.7705 20.6893C17.3686 20.9706 17.1429 21.3522 17.1429 21.75C17.1429 22.1478 17.3686 22.5294 17.7705 22.8107C18.1723 23.092 18.7174 23.25 19.2857 23.25V23.25ZM19.2857 24.75C20.4224 24.75 21.5124 24.4339 22.3162 23.8713C23.1199 23.3087 23.5714 22.5456 23.5714 21.75C23.5714 20.9544 23.1199 20.1913 22.3162 19.6287C21.5124 19.0661 20.4224 18.75 19.2857 18.75C18.1491 18.75 17.059 19.0661 16.2553 19.6287C15.4515 20.1913 15 20.9544 15 21.75C15 22.5456 15.4515 23.3087 16.2553 23.8713C17.059 24.4339 18.1491 24.75 19.2857 24.75Z" fill="#404042"/>
<path fill-rule="evenodd" clip-rule="evenodd" d="M18.2144 23.25H16.0715V30L19.2858 28.875L22.5001 30V23.25H20.3572V27.573L19.2858 27.198L18.2144 27.573V23.25Z" fill="#404042"/>
</svg>
