<svg width="20" height="20" viewBox="0 0 20 20" fill="none" xmlns="http://www.w3.org/2000/svg">
<path d="M10 19L12 17M14.5 17C15.163 17 15.7989 16.7366 16.2678 16.2678C16.7366 15.7989 17 15.163 17 14.5C17 13.837 16.7366 13.2011 16.2678 12.7322C15.7989 12.2634 15.163 12 14.5 12C13.837 12 13.2011 12.2634 12.7322 12.7322C12.2634 13.2011 12 13.837 12 14.5C12 15.163 12.2634 15.7989 12.7322 16.2678C13.2011 16.7366 13.837 17 14.5 17V17ZM8 3L10 1L8 3ZM5.5 8C6.16304 8 6.79893 7.73661 7.26777 7.26777C7.73661 6.79893 8 6.16304 8 5.5C8 4.83696 7.73661 4.20107 7.26777 3.73223C6.79893 3.26339 6.16304 3 5.5 3C4.83696 3 4.20107 3.26339 3.73223 3.73223C3.26339 4.20107 3 4.83696 3 5.5C3 6.16304 3.26339 6.79893 3.73223 7.26777C4.20107 7.73661 4.83696 8 5.5 8V8ZM6 14L14 6L6 14ZM3.5 19C4.16304 19 4.79893 18.7366 5.26777 18.2678C5.73661 17.7989 6 17.163 6 16.5C6 15.837 5.73661 15.2011 5.26777 14.7322C4.79893 14.2634 4.16304 14 3.5 14C2.83696 14 2.20107 14.2634 1.73223 14.7322C1.26339 15.2011 1 15.837 1 16.5C1 17.163 1.26339 17.7989 1.73223 18.2678C2.20107 18.7366 2.83696 19 3.5 19V19ZM16.5 6C17.163 6 17.7989 5.73661 18.2678 5.26777C18.7366 4.79893 19 4.16304 19 3.5C19 2.83696 18.7366 2.20107 18.2678 1.73223C17.7989 1.26339 17.163 1 16.5 1C15.837 1 15.2011 1.26339 14.7322 1.73223C14.2634 2.20107 14 2.83696 14 3.5C14 4.16304 14.2634 4.79893 14.7322 5.26777C15.2011 5.73661 15.837 6 16.5 6Z" stroke="#404042" stroke-width="2" stroke-linecap="round" stroke-linejoin="round"/>
</svg>
